<?xml version="1.0" encoding="UTF-8"?>
<!-- Generated by Pixelmator Pro 3.7 -->
<svg width="2836" height="845" viewBox="0 0 2836 845" xmlns="http://www.w3.org/2000/svg">
    <path id="Shape" fill="#ffffff" fill-rule="evenodd" stroke="none" d="M 2549.26123 367.02655 L 2480.786865 366.5 L 2477.478516 357.232849 C 2475.658691 352.135895 2473.040283 346.037964 2471.659424 343.681854 C 2470.278564 341.325745 2467.427979 337.321869 2465.324463 334.784393 C 2463.220947 332.246948 2459.25 328.390442 2456.5 326.214417 C 2453.75 324.038452 2448.639648 320.819336 2445.143555 319.060913 C 2441.647461 317.302429 2435.347412 314.983948 2431.143555 313.908691 C 2426.122314 312.624329 2419.90625 311.925964 2413.024902 311.873108 C 2407.263428 311.828857 2400.005615 312.080444 2396.895996 312.432251 C 2393.786377 312.784058 2388.354248 313.897766 2384.824463 314.907227 C 2381.294678 315.916626 2375.50293 318.182434 2371.953369 319.942383 C 2368.404053 321.702271 2363.25 324.842102 2360.5 326.919678 C 2357.75 328.997314 2352.800049 333.587677 2349.5 337.120514 C 2346.199951 340.653351 2341.900146 346.233978 2339.94458 349.521912 C 2337.989014 352.809875 2334.753418 359.325012 2332.75415 364 C 2330.754883 368.674988 2328.177979 376.151794 2327.027832 380.615112 C 2325.877441 385.07843 2324.284424 393.628418 2323.487549 399.615112 C 2322.690918 405.601807 2322.030273 416.447021 2322.019531 423.715607 C 2322.008789 430.984222 2322.695313 441.916504 2323.545166 448.009613 C 2324.39502 454.102722 2326.218994 463.005676 2327.598389 467.794006 C 2328.978027 472.582306 2331.512207 479.649994 2333.230225 483.5 C 2334.948242 487.350006 2338.739502 494.155151 2341.655518 498.622589 C 2344.571533 503.089996 2349.70166 509.285858 2353.055664 512.391113 C 2356.409912 515.49646 2361.674561 519.649536 2364.755371 521.620239 C 2367.836182 523.590942 2373.539063 526.473022 2377.428467 528.02478 C 2381.317871 529.576599 2388.262207 531.555847 2392.860352 532.423096 C 2397.45874 533.290405 2405.472412 534 2410.668945 534 C 2415.865234 534 2423.353027 533.524292 2427.30835 532.942749 C 2431.263916 532.361328 2437.425049 530.972595 2441 529.85675 C 2444.574951 528.740906 2450.622314 526.191406 2454.438477 524.191101 C 2458.695557 521.959717 2463.98877 517.942261 2468.135986 513.795105 C 2473.24292 508.688049 2476.018066 504.770508 2479.489014 497.767944 C 2482.015625 492.670563 2484.905762 485.290253 2485.911621 481.367249 C 2486.917236 477.444214 2488.056152 471.706726 2488.442139 468.617249 C 2489.143799 463 2489.143799 463 2452.555664 463 L 2415.967285 463 L 2416.233643 436.25 L 2416.5 409.5 L 2485.25 409.243103 L 2554 408.986206 L 2554 497.993103 L 2554 587 L 2531.212646 587 L 2508.425293 587 L 2505.060791 569.75 C 2503.210205 560.262512 2501.499512 551.958984 2501.259277 551.297607 C 2501.019043 550.636353 2498.423584 552.922974 2495.491699 556.379028 C 2492.559814 559.835083 2487.537109 564.929749 2484.330322 567.700562 C 2481.123779 570.471313 2475.270752 574.82251 2471.32373 577.369873 C 2467.376953 579.917236 2460.665283 583.395874 2456.408936 585.100098 C 2452.152588 586.804443 2444.356934 589.336182 2439.085205 590.726257 C 2430.845459 592.898926 2426.903076 593.300598 2411 593.588013 C 2398.308838 593.817383 2389.674072 593.473633 2383.5 592.493164 C 2378.550049 591.707092 2370.785889 590.145081 2366.246094 589.021973 C 2361.706543 587.898804 2355.181641 585.90686 2351.746094 584.595337 C 2348.310791 583.283875 2341.899902 580.508179 2337.5 578.427124 C 2333.100098 576.346069 2325 571.720215 2319.5 568.147278 C 2312.550781 563.632874 2305.821533 557.967224 2297.442627 549.575562 C 2290.811035 542.93396 2283.313965 534.349976 2280.782715 530.5 C 2278.251465 526.650024 2274.268066 520.125 2271.930664 516 C 2269.593506 511.875 2266.371582 505.350006 2264.770996 501.5 C 2263.170166 497.649994 2260.740234 491.125 2259.37085 487 C 2258.001465 482.875 2256.005371 475.848022 2254.935059 471.384491 C 2253.864746 466.920959 2252.303955 458.389709 2251.466797 452.426178 C 2250.568359 446.025085 2249.949463 434.397461 2249.956299 424.041687 C 2249.962891 414.000305 2250.612793 401.796722 2251.476563 395.5 C 2252.306396 389.450012 2253.854492 380.674988 2254.916748 376 C 2255.979248 371.325012 2258.251465 363.225006 2259.966553 358 C 2261.681396 352.774994 2265.470459 343.549988 2268.386475 337.5 C 2271.30249 331.450012 2276.414551 322.450012 2279.746582 317.5 C 2283.078613 312.549988 2289.561279 304.441162 2294.152344 299.480347 C 2298.743652 294.519531 2304.975098 288.406921 2308 285.896729 C 2311.024902 283.386597 2317.074219 278.935791 2321.442627 276.006042 C 2325.810791 273.076294 2333.910889 268.550781 2339.442627 265.949341 C 2344.974121 263.3479 2353.108643 260.085205 2357.519043 258.698975 C 2361.929688 257.312683 2368.904541 255.469727 2373.019043 254.603455 C 2377.133545 253.737244 2385.449951 252.50177 2391.5 251.858032 C 2398.018555 251.16449 2408.611084 250.923767 2417.5 251.267273 C 2426.495117 251.614807 2436.302979 252.650757 2442 253.854919 C 2447.225098 254.959351 2455.320801 257.07251 2459.990479 258.550903 C 2464.660156 260.029297 2472.193848 262.954346 2476.731934 265.050964 C 2481.27002 267.147583 2488.924316 271.427673 2493.741455 274.562317 C 2498.558594 277.69696 2505.570068 282.977966 2509.322266 286.297913 C 2513.074463 289.617798 2518.730469 295.521423 2521.890869 299.417053 C 2525.051514 303.312683 2529.278809 309.200012 2531.285156 312.5 C 2533.291504 315.799988 2536.779053 322.457397 2539.0354 327.294189 C 2541.291504 332.130981 2544.203125 340.288635 2545.505371 345.422302 C 2546.807617 350.555969 2548.185547 357.517059 2548.567139 360.891388 L 2549.26123 367.02655 Z M 681.710815 484 L 510.706543 484 L 511.327209 491.25 C 511.668579 495.237488 512.789551 501.691742 513.818359 505.592773 C 514.847046 509.493805 516.996277 515.287048 518.594421 518.466675 C 520.192505 521.64624 523.837158 526.592773 526.693726 529.458862 C 529.550232 532.325012 534.72522 536.059326 538.193726 537.757324 C 541.66217 539.455444 547.968506 541.554688 552.207825 542.422363 C 556.447144 543.290039 563.872131 543.993347 568.707825 543.985229 C 573.543518 543.977051 580.401184 543.286621 583.947083 542.450806 C 587.493042 541.615051 593.212036 539.544067 596.656067 537.848511 C 600.100098 536.153076 605.672058 532.273499 609.038269 529.227295 C 612.40448 526.18103 616.515869 521.283691 618.174744 518.34436 C 621.190918 513 621.190918 513 649.662842 513 C 678.134766 513 678.134766 513 677.458191 515.25 C 677.086121 516.487488 675.058167 521.667847 672.951721 526.761963 C 670.845276 531.856079 666.956909 539.682617 664.310913 544.154419 C 661.664917 548.626099 656.349976 555.674927 652.5 559.81842 C 648.650024 563.961914 642.799988 569.34668 639.5 571.784729 C 636.200012 574.222717 630.349976 577.807251 626.5 579.750427 C 622.650024 581.693604 616.349976 584.360596 612.5 585.677185 C 608.650024 586.993774 602.575012 588.720825 599 589.515137 C 595.424988 590.309387 588.686829 591.418457 584.026245 591.979614 C 579.365662 592.540833 571.040649 592.943054 565.526245 592.873535 C 560.01178 592.803955 552.349976 592.353821 548.5 591.87323 C 544.650024 591.3927 538.575012 590.340576 535 589.535217 C 531.424988 588.729858 525.327515 586.987427 521.450012 585.663086 C 517.57251 584.338745 511.0224 581.608154 506.894165 579.595215 C 502.76593 577.582153 495.374817 572.912231 490.469452 569.21759 C 485.564087 565.522949 478.614227 559.077148 475.025299 554.893677 C 471.436371 550.710205 466.317474 543.598511 463.649902 539.089844 C 460.982361 534.581116 457.317444 527.203979 455.505646 522.696106 C 453.693848 518.188232 451.042969 509.774994 449.614777 504 C 448.145447 498.058563 446.605652 487.928162 446.068024 480.666046 C 445.472137 472.616425 445.468201 463.483154 446.057465 456.166046 C 446.574188 449.749725 448.167023 439.774994 449.597137 434 C 451.027252 428.225006 453.691772 419.899994 455.518311 415.5 C 457.344849 411.100006 460.112946 405.243866 461.669647 402.486389 C 463.226349 399.728912 466.452667 394.631958 468.839264 391.159821 C 471.225861 387.687683 476.568573 381.489655 480.711975 377.386383 C 484.855347 373.283142 491.046509 367.927124 494.470032 365.484131 C 497.893585 363.041138 504.475861 359.034088 509.097351 356.57959 C 513.718811 354.125092 521.562378 350.758667 526.527466 349.098633 C 531.492554 347.438629 539.817566 345.38913 545.027466 344.54425 C 550.237366 343.699341 560.125 343.00766 567 343.007202 C 573.875 343.006775 583.44165 343.695862 588.259216 344.538574 C 593.076782 345.381287 600.051758 347.006073 603.759216 348.149231 C 607.466675 349.292419 613.597046 351.756531 617.382385 353.625061 C 621.167664 355.493622 627.36084 359.080719 631.14502 361.596405 C 634.929138 364.112091 640.506836 368.438416 643.539917 371.21048 C 646.572998 373.982544 651.974304 380.131714 655.542847 384.875305 C 659.111328 389.618896 664.003906 397.325012 666.415222 402 C 668.826538 406.674988 672.151184 414.350494 673.803345 419.056671 C 675.455505 423.762848 677.730957 431.87677 678.859985 437.087616 C 679.988953 442.298462 681.361389 452.103058 681.909851 458.87561 C 682.458313 465.648132 682.637878 474.071716 682.30896 477.594666 L 681.710815 484 Z M 1349 592.460876 C 1340.474976 592.695618 1330.574951 592.493347 1327 592.011414 C 1323.425049 591.529419 1318.025024 590.617554 1315 589.984924 C 1311.974976 589.352295 1305.930664 587.728394 1301.568115 586.376221 C 1297.205566 585.024048 1289.960938 582.122131 1285.468994 579.927612 C 1280.977051 577.733032 1274.421387 573.919067 1270.900879 571.451965 C 1267.380371 568.984863 1261.234619 563.764648 1257.243774 559.85144 C 1253.252808 555.93811 1247.896851 549.806641 1245.341675 546.22583 C 1242.786377 542.64502 1238.765869 535.841858 1236.407104 531.107666 C 1234.048218 526.373413 1231.014404 519.101318 1229.665283 514.947388 C 1228.31604 510.793518 1226.451294 503.66391 1225.52124 499.103882 C 1224.591064 494.543854 1223.530884 485.792511 1223.165039 479.656464 C 1222.799316 473.520416 1222.79541 463.325012 1223.156372 457 C 1223.517456 450.674988 1224.597168 441.674988 1225.555786 437 C 1226.514404 432.325012 1228.633423 424.674988 1230.264893 420 C 1231.896362 415.325012 1234.937622 408.125 1237.023438 404 C 1239.109253 399.875 1243.044922 393.350006 1245.769409 389.5 C 1248.494019 385.649994 1254.272949 379.118683 1258.611572 374.985992 C 1262.950195 370.853271 1269.425049 365.547394 1273 363.195129 C 1276.574951 360.842896 1283.245483 357.125183 1287.823242 354.933563 C 1292.401001 352.741943 1300.051025 349.812225 1304.823242 348.423065 C 1309.595459 347.033936 1317.775024 345.248108 1323 344.454559 C 1328.224976 343.661041 1338.296265 343.009125 1345.380615 343.00589 C 1352.465088 343.002655 1362.815063 343.723114 1368.380615 344.606903 C 1373.946289 345.490692 1382.179565 347.279175 1386.676758 348.581299 C 1391.17395 349.883423 1398.598999 352.741943 1403.176758 354.933563 C 1407.754517 357.125183 1414.425049 360.845184 1418 363.200256 C 1421.574951 365.555298 1427.833252 370.6362 1431.907227 374.491089 C 1435.981201 378.345978 1441.699341 384.712341 1444.614258 388.63855 C 1447.529053 392.564758 1451.776733 399.471588 1454.053711 403.987091 C 1456.330566 408.502594 1459.468628 415.969543 1461.027222 420.580353 C 1462.585693 425.191162 1464.587891 432.528198 1465.476563 436.884857 C 1466.365112 441.241516 1467.44043 449.995514 1467.865967 456.338196 C 1468.291626 462.680847 1468.294556 473.396027 1467.872559 480.149719 C 1467.450562 486.903381 1466.377686 495.820068 1465.488403 499.964569 C 1464.599121 504.109039 1462.749756 510.953857 1461.37854 515.175232 C 1460.007446 519.396606 1456.935669 526.671753 1454.55249 531.342224 C 1452.169434 536.012695 1448.152588 542.730591 1445.626221 546.270874 C 1443.099976 549.811157 1437.988037 555.754639 1434.266479 559.478516 C 1430.544922 563.202454 1424.769897 568.198853 1421.433228 570.581665 C 1418.096436 572.964539 1411.796387 576.744385 1407.433228 578.981323 C 1403.069946 581.218262 1395.334351 584.386902 1390.243164 586.022644 C 1385.151855 587.658386 1377.276855 589.680176 1372.743164 590.515442 C 1368.209351 591.350708 1357.525024 592.226196 1349 592.460876 Z M 1836.710815 484 L 1665.706543 484 L 1666.327148 491.25 C 1666.668579 495.237488 1667.789551 501.691742 1668.818359 505.592773 C 1669.847046 509.493805 1671.996338 515.287048 1673.59436 518.466675 C 1675.192505 521.64624 1678.837158 526.592773 1681.693726 529.458862 C 1684.550293 532.325012 1689.72522 536.059326 1693.193726 537.757324 C 1696.662109 539.455444 1702.968506 541.554688 1707.207886 542.422363 C 1711.447144 543.290039 1718.872192 543.993347 1723.707886 543.985229 C 1728.543579 543.977051 1735.401245 543.286621 1738.947144 542.450806 C 1742.493042 541.615051 1748.212036 539.544067 1751.656006 537.848511 C 1755.100098 536.153076 1760.672119 532.273499 1764.038208 529.227295 C 1767.404419 526.18103 1771.515869 521.283691 1773.174805 518.34436 C 1776.190918 513 1776.190918 513 1804.662842 513 C 1833.134766 513 1833.134766 513 1832.458252 515.25 C 1832.08606 516.487488 1830.058228 521.667847 1827.951782 526.761963 C 1825.845337 531.856079 1821.956909 539.682617 1819.310913 544.154419 C 1816.664917 548.626099 1811.349976 555.674927 1807.5 559.81842 C 1803.650024 563.961914 1797.800049 569.34668 1794.5 571.784729 C 1791.199951 574.222717 1785.349976 577.807251 1781.5 579.750427 C 1777.650024 581.693604 1771.349976 584.360596 1767.5 585.677185 C 1763.650024 586.993774 1757.574951 588.720825 1754 589.515137 C 1750.425049 590.309387 1743.686768 591.418457 1739.026245 591.979614 C 1734.365723 592.540833 1726.040649 592.943054 1720.526245 592.873535 C 1715.011841 592.803955 1707.349976 592.353821 1703.5 591.87323 C 1699.650024 591.3927 1693.574951 590.340576 1690 589.535217 C 1686.425049 588.729858 1680.327515 586.987427 1676.450073 585.663086 C 1672.57251 584.338745 1666.022339 581.608154 1661.894165 579.595215 C 1657.765991 577.582153 1650.374756 572.912231 1645.469482 569.21759 C 1640.564087 565.522949 1633.614258 559.077148 1630.025269 554.893677 C 1626.436401 550.710205 1621.317505 543.598511 1618.649902 539.089844 C 1615.9823 534.581116 1612.317383 527.203979 1610.505615 522.696106 C 1608.693848 518.188232 1606.042969 509.774994 1604.614746 504 C 1603.145508 498.058563 1601.605591 487.928162 1601.067993 480.666046 C 1600.472168 472.616425 1600.46814 463.483154 1601.057495 456.166046 C 1601.574219 449.749725 1603.166992 439.774994 1604.597168 434 C 1606.027222 428.225006 1608.691772 419.899994 1610.518311 415.5 C 1612.344849 411.100006 1615.112915 405.243866 1616.669678 402.486389 C 1618.226318 399.728912 1621.452637 394.631958 1623.839233 391.159821 C 1626.22583 387.687683 1631.568604 381.489655 1635.711914 377.386383 C 1639.855347 373.283142 1646.046509 367.927124 1649.470093 365.484131 C 1652.893555 363.041138 1659.47583 359.034088 1664.09729 356.57959 C 1668.71875 354.125092 1676.562378 350.758667 1681.527466 349.098633 C 1686.492554 347.438629 1694.817627 345.38913 1700.027466 344.54425 C 1705.237305 343.699341 1715.125 343.00766 1722 343.007202 C 1728.875 343.006775 1738.44165 343.695862 1743.259155 344.538574 C 1748.076782 345.381287 1755.051758 347.006073 1758.759155 348.149231 C 1762.466675 349.292419 1768.597046 351.756531 1772.382324 353.625061 C 1776.167725 355.493622 1782.36084 359.080719 1786.14502 361.596405 C 1789.929077 364.112091 1795.506836 368.438416 1798.539917 371.21048 C 1801.572998 373.982544 1806.974365 380.131714 1810.542847 384.875305 C 1814.111328 389.618896 1819.003906 397.325012 1821.415283 402 C 1823.826538 406.674988 1827.151245 414.350494 1828.803345 419.056671 C 1830.455566 423.762848 1832.730957 431.87677 1833.859985 437.087616 C 1834.988892 442.298462 1836.361328 452.103058 1836.909912 458.87561 C 1837.458374 465.648132 1837.637939 474.071716 1837.30896 477.594666 L 1836.710815 484 Z M 2032 259 L 2098 259 L 2098 423 L 2098 587 L 2067 587 L 2036 587 L 2036 572 C 2036 563.75 2035.61377 557 2035.141602 557 C 2034.669434 557 2032.695679 559.390869 2030.755615 562.312988 C 2028.81543 565.235107 2024.440674 570.148254 2021.034058 573.231079 C 2017.627319 576.313965 2011.838501 580.409241 2008.170044 582.331665 C 2004.501465 584.25415 1998.725708 586.757935 1995.334839 587.89563 C 1991.94397 589.033325 1984.968872 590.645386 1979.834839 591.478027 C 1974.700684 592.310669 1966.675049 592.936707 1962 592.869141 C 1957.324951 592.801636 1950.574951 592.378784 1947 591.929504 C 1943.425049 591.480225 1937.574951 590.340759 1934 589.397339 C 1930.425049 588.453979 1924.800049 586.534912 1921.5 585.132813 C 1918.199951 583.730591 1913.345581 581.328857 1910.712524 579.795532 C 1908.079346 578.262207 1903.543579 575.248413 1900.632935 573.098145 C 1897.72229 570.947998 1892.226318 565.808594 1888.419556 561.677246 C 1884.612671 557.545898 1879.342041 550.599243 1876.706909 546.240234 C 1874.071777 541.881226 1870.384155 534.756409 1868.512207 530.407349 C 1866.640137 526.05835 1863.936157 518.450012 1862.503296 513.5 C 1861.070435 508.549988 1859.133423 500.03186 1858.198975 494.570801 C 1857.006836 487.603516 1856.5 478.952698 1856.5 465.570801 C 1856.5 449.817291 1856.890137 444.546478 1858.742676 435.269257 C 1859.976196 429.092346 1862.308472 420.219879 1863.925659 415.552673 C 1865.542847 410.885468 1868.229126 404.210571 1869.895264 400.719574 C 1871.561279 397.228546 1875.216553 390.861115 1878.018066 386.569733 C 1880.819458 382.27832 1886.573975 375.324097 1890.805786 371.115875 C 1895.037598 366.907654 1901.137329 361.727936 1904.360596 359.605408 C 1907.583984 357.482849 1912.758911 354.450836 1915.860596 352.867554 C 1918.96228 351.284302 1924.875 348.914551 1929 347.601471 C 1933.125 346.288391 1940.550049 344.646973 1945.5 343.953857 C 1951.023071 343.180511 1958.942749 342.914154 1966 343.264404 C 1972.518066 343.587921 1980.532471 344.67392 1984.5 345.771271 C 1988.349976 346.836121 1994.324219 348.871429 1997.776123 350.29422 C 2001.227905 351.71698 2007.102661 354.909027 2010.830933 357.387634 C 2014.559326 359.866241 2019.835083 364.295807 2022.554932 367.231079 C 2025.274658 370.166351 2028.487549 373.902649 2029.694458 375.533966 C 2031.888916 378.5 2031.888916 378.5 2031.944458 318.75 L 2032 259 Z M 320.886261 393 L 282 393 L 282 371 L 282 349 L 301.5 349 L 321 349 L 321 313.5 L 321 278 L 354 278 L 387 278 L 387 313.5 L 387 349 L 410.5 349 L 434 349 L 434 371 L 434 393 L 410.46582 393 L 386.931671 393 L 387.21582 458.75 C 387.494171 523.150146 387.542786 524.582153 389.58371 528.5 C 390.91217 531.050171 393.268158 533.406128 396.08371 535 C 400.308533 537.391602 401.226196 537.499939 417.25 537.498413 L 434 537.496826 L 434 562.131775 C 434 586.766724 434 586.766724 431.75 587.469116 C 430.512512 587.855347 418.25 588.329102 404.5 588.521729 C 390.75 588.714355 376.350006 588.444153 372.5 587.921204 C 368.649994 587.398315 362.799988 586.294556 359.5 585.468445 C 356.200012 584.642334 350.575012 582.540588 347 580.797852 C 343.378387 579.03241 338.21994 575.349487 335.351166 572.480957 C 332.519287 569.649414 328.955963 564.895386 327.432678 561.916382 C 325.909393 558.937378 323.983093 554.025024 323.152039 551 C 321.88205 546.377319 321.580841 533.337769 321.263641 469.25 L 320.886261 393 Z M 718 587 L 718 259 L 750.494568 259 L 782.989075 259 L 783.244568 346.685059 L 783.5 434.370117 L 824.5 391.706299 L 865.5 349.04245 L 904 349.028473 L 942.5 349.014526 L 924 367.312866 C 913.825012 377.376984 893.703796 397.077545 879.286255 411.091888 L 853.07251 436.572571 L 902.984131 511.786285 L 952.895691 587 L 913.197815 586.961182 L 873.5 586.922363 L 841.092346 534.000122 C 808.684631 481.077789 808.684631 481.077789 804.092346 484.96579 C 801.566528 487.104187 795.787476 492.608582 791.25 497.197784 L 783 505.541779 L 783 546.270874 L 783 587 L 750.5 587 L 718 587 Z M 967 587 L 967 349 L 998 349 L 1029 349 L 1029 365.5 C 1029 374.575012 1029.38623 382 1029.858398 382 C 1030.330566 382 1032.289917 379.630707 1034.212646 376.734894 C 1036.135376 373.839081 1041.154907 368.251221 1045.367188 364.317444 C 1050.942139 359.110992 1055.544922 355.931549 1062.284912 352.630981 C 1067.377441 350.137207 1075.584229 347.062561 1080.522095 345.798431 C 1088.181396 343.837585 1091.996826 343.502594 1106.5 343.517609 C 1120.644653 343.532227 1125.011719 343.907745 1132.5 345.753357 C 1137.449951 346.973328 1145.658081 350.020325 1150.740356 352.524445 C 1157.732544 355.969757 1161.625122 358.718719 1166.740356 363.823883 C 1170.45813 367.534424 1174.952393 373.03479 1176.727661 376.046936 C 1178.50293 379.059052 1181.110474 384.829834 1182.522339 388.87088 C 1183.934204 392.911926 1185.734741 399.431641 1186.523438 403.359131 C 1187.312134 407.286621 1188.416992 415.160187 1188.97876 420.855957 C 1189.576416 426.916504 1190 463.520477 1190 509.105957 L 1190 587 L 1157.572021 587 L 1125.144043 587 L 1124.728394 511.25 C 1124.359375 443.99118 1124.119263 434.672394 1122.58728 428.116821 C 1121.638428 424.056061 1120.103149 418.801971 1119.175781 416.441071 C 1118.248413 414.08017 1116.033691 410.082825 1114.254028 407.558075 C 1112.474487 405.033325 1108.931763 401.644287 1106.381348 400.026917 C 1103.831055 398.409546 1099.214478 396.504333 1096.122192 395.793121 C 1093.030029 395.081909 1086.428833 394.520996 1081.452881 394.546661 C 1075.942505 394.575073 1069.751099 395.31192 1065.614868 396.431549 C 1061.831543 397.455627 1056.227539 400.00354 1052.961548 402.184479 C 1049.132935 404.741119 1045.723633 408.159119 1043.134155 412.036896 C 1040.953491 415.302582 1038.452026 420.133881 1037.575317 422.773071 C 1036.69873 425.412262 1035.240112 430.930481 1034.333984 435.035797 C 1032.911255 441.481415 1032.63147 452.359467 1032.283691 514.75 L 1031.880859 587 L 999.44043 587 L 967 587 Z M 1504 587 L 1504 259 L 1536.5 259 L 1569 259 L 1569 423 L 1569 587 L 1536.5 587 L 1504 587 Z M 1347.5 543.631348 C 1357.447876 543.318237 1360.673584 542.804871 1366.362793 540.62915 C 1370.137329 539.185669 1375.418823 536.394775 1378.099365 534.427124 C 1380.779785 532.459412 1384.519897 529.042236 1386.410645 526.833374 C 1388.301392 524.624512 1391.433472 519.800537 1393.370972 516.113525 C 1395.308472 512.426514 1397.789185 506.055145 1398.883667 501.954926 C 1399.978149 497.854706 1401.352051 491.263794 1401.936768 487.308441 C 1402.521606 483.353088 1403 474.912628 1403 468.55188 C 1403 462.191101 1402.312378 452.408813 1401.471924 446.813446 C 1400.631592 441.218079 1398.880127 433.580841 1397.579712 429.841797 C 1396.279419 426.102753 1393.958862 420.89624 1392.422729 418.271759 C 1390.886719 415.647308 1387.410034 411.150269 1384.696777 408.278381 C 1381.983521 405.406525 1377.642944 401.695984 1375.051025 400.032776 C 1372.459229 398.369568 1367.674927 396.080719 1364.419312 394.946411 C 1361.163696 393.812134 1354.673706 392.625763 1349.99707 392.310028 C 1345.088745 391.978668 1338.471436 392.245789 1334.34436 392.941895 C 1330.412109 393.605164 1324.424438 395.458008 1321.038452 397.059326 C 1317.637451 398.667725 1312.201782 402.527466 1308.893311 405.683136 C 1305.599487 408.824921 1301.400879 413.893982 1299.56311 416.947723 C 1297.725342 420.001465 1295.094727 425.656403 1293.717407 429.514221 C 1292.340088 433.372009 1290.490112 441.075714 1289.606567 446.633545 C 1288.7229 452.191345 1288 461.750427 1288 467.875916 C 1288 474.001404 1288.679688 483.538208 1289.510376 489.068817 C 1290.341064 494.599396 1291.954468 501.908936 1293.095825 505.312225 C 1294.237061 508.715515 1296.587036 514.200012 1298.317871 517.5 C 1300.048828 520.799988 1303.947876 526.005981 1306.982422 529.068848 C 1310.01709 532.131714 1314.671265 535.906738 1317.324951 537.457764 C 1319.978638 539.008789 1325.153687 541.117371 1328.824951 542.143433 C 1334.122681 543.624023 1337.976196 543.93103 1347.5 543.631348 Z M 1978.113525 543.890442 C 1982.300903 543.950684 1988.151001 543.547607 1991.113525 542.994751 C 1994.07605 542.441772 1999.368042 540.586304 2002.873413 538.871338 C 2006.563354 537.06604 2011.615967 533.382813 2014.873413 530.123535 C 2018.008179 526.987061 2022.117065 521.395264 2024.151367 517.496948 C 2026.159546 513.648682 2028.694824 507.575012 2029.785156 504 C 2030.87561 500.424988 2032.347778 493.235962 2033.056763 488.024353 C 2033.765625 482.812775 2034.318359 473.087433 2034.284912 466.412506 C 2034.251465 459.737579 2033.494019 449.666748 2032.601685 444.032867 C 2031.709473 438.399017 2029.791138 430.799347 2028.338867 427.144745 C 2026.886597 423.490143 2024.25769 418.25 2022.496948 415.5 C 2020.736206 412.75 2016.757935 408.115662 2013.656372 405.201447 C 2010.554688 402.287262 2005.156494 398.564301 2001.660278 396.928223 C 1998.164063 395.292145 1992.458374 393.452362 1988.980835 392.839813 C 1985.474243 392.222137 1978.83728 391.983978 1974.079102 392.305084 C 1969.360596 392.623535 1962.836304 393.812134 1959.580688 394.946411 C 1956.325073 396.080719 1951.473999 398.412415 1948.800537 400.127991 C 1946.127075 401.843597 1941.723877 405.733185 1939.015869 408.771576 C 1936.307739 411.809967 1932.5 417.517944 1930.554199 421.455994 C 1928.608398 425.394012 1926.10022 432.189941 1924.980469 436.558014 C 1923.860718 440.926117 1922.420166 450.042603 1921.779175 456.816895 C 1920.880249 466.319214 1920.890381 471.61972 1921.823608 480.01236 C 1922.488892 485.995544 1924.177856 494.840851 1925.576904 499.668579 C 1926.975952 504.496277 1929.456055 510.951965 1931.088379 514.014526 C 1932.720703 517.077026 1935.996216 521.947632 1938.367188 524.838074 C 1940.738159 527.728516 1945.113037 531.936768 1948.088989 534.189941 C 1951.065063 536.442993 1955.421387 539.146973 1957.769653 540.19873 C 1960.118042 541.250488 1963.942993 542.486694 1966.269653 542.945923 C 1968.596313 543.405151 1973.926025 543.8302 1978.113525 543.890442 Z M 2136.59375 439 C 2138.342529 428.790253 2140.046143 423.382263 2141.507324 420.395294 C 2142.96875 417.408295 2146.366211 412.704102 2149.056885 409.941498 C 2152.039307 406.879639 2156.594727 403.665588 2160.724854 401.70929 C 2166.871826 398.797577 2168.380859 398.5 2177 398.5 C 2185.619141 398.5 2187.128174 398.797577 2193.275146 401.70929 C 2197.405273 403.665588 2201.960693 406.879639 2204.943115 409.941498 C 2207.633789 412.704102 2211.03125 417.408295 2212.492676 420.395294 C 2213.953857 423.382263 2215.657471 428.790253 2216.277832 432.413055 L 2217.40625 439 L 2216.277832 445.586945 C 2215.657471 449.209747 2213.953857 454.617737 2212.492676 457.604706 C 2211.03125 460.591705 2207.633789 465.295898 2204.943115 468.058502 C 2201.984375 471.09613 2197.471191 474.288483 2193.524414 476.135315 C 2188.445068 478.512299 2185.280762 479.270966 2179.249268 479.557983 C 2174.987061 479.760803 2169.810547 479.499878 2167.74585 478.978149 C 2165.681152 478.456421 2161.671387 476.853699 2158.835205 475.416565 C 2155.999268 473.979401 2151.538086 470.605743 2148.921631 467.919556 C 2146.305176 465.233368 2142.96875 460.591705 2141.507324 457.604706 C 2140.046143 454.617737 2138.342529 449.209747 2137.722168 445.586945 L 2136.59375 439 Z M 563.301697 443 C 592.220825 443 616.069885 442.662506 616.299622 442.25 C 616.529358 441.837494 615.877014 438.125 614.849976 434 C 613.822998 429.875 611.254333 422.899994 609.141785 418.5 C 607.029297 414.100006 603.252441 408.233093 600.748779 405.462463 C 598.245117 402.691803 593.916138 399.183655 591.128723 397.666595 C 588.34137 396.149506 583.009583 394.261719 579.280396 393.471497 C 575.551147 392.681274 569.125 392.034729 565 392.034729 C 560.875 392.034729 554.520081 392.666351 550.877991 393.438354 C 547.235901 394.210358 541.412598 396.277313 537.937378 398.031616 C 534.453491 399.790253 529.064697 403.77533 525.92572 406.914276 C 522.794556 410.045441 518.98761 415.058167 517.46582 418.05365 C 515.944031 421.049133 514.079346 425.75 513.322021 428.5 C 512.564758 431.25 511.6698 435.637512 511.333282 438.25 C 510.721405 443 510.721405 443 563.301697 443 Z M 1718.301636 443 C 1747.220825 443 1771.069946 442.662506 1771.299561 442.25 C 1771.529297 441.837494 1770.876953 438.125 1769.849976 434 C 1768.822998 429.875 1766.254272 422.899994 1764.141846 418.5 C 1762.029297 414.100006 1758.252441 408.233093 1755.748779 405.462463 C 1753.245117 402.691803 1748.916138 399.183655 1746.128784 397.666595 C 1743.341309 396.149506 1738.009644 394.261719 1734.280396 393.471497 C 1730.551147 392.681274 1724.125 392.034729 1720 392.034729 C 1715.875 392.034729 1709.520142 392.666351 1705.878052 393.438354 C 1702.235962 394.210358 1696.412598 396.277313 1692.937378 398.031616 C 1689.453491 399.790253 1684.064697 403.77533 1680.925659 406.914276 C 1677.794556 410.045441 1673.987549 415.058167 1672.46582 418.05365 C 1670.944092 421.049133 1669.079346 425.75 1668.322021 428.5 C 1667.564697 431.25 1666.6698 435.637512 1666.333252 438.25 C 1665.721436 443 1665.721436 443 1718.301636 443 Z"/>
</svg>
